<svg
    version="1.0"
    id="Layer_1"
    xmlns="http://www.w3.org/2000/svg"
    xmlns:xlink="http://www.w3.org/1999/xlink"
    viewBox="0 0 104.4 124.1"
    enable-background="new 0 0 104.4 124.1"
    xml:space="preserve"
>
    <g id="Layer_2">
        <path
            fill="#5382A1"
            d="M39.1,117.7c9.4,0.6,23.7-0.4,30.3-2c0,0-3.6,5.8-42,6.2
            C27.4,121.9,61.7,122.4,83.1,119c-3.6,3.7-15.2,7.8-44,7.2c-23.4-0.5-4.1,5.4,26.4,4.4c22.1-0.8,44.6-7.9,24-11.6
            c0,0,5.2,4.1-11.8,7.4C60,130,3.9,129.1,1.4,118.7C0.5,114.8,14.5,117.1,39.1,117.7z"
        />
        <path
            fill="#5382A1"
            d="M48.1,101.7c13.3,0.8,33.7-0.6,34.1-2.1
            c0,0-3.8,5.4-42.4,6.6c-16.6,0.4-27.1-0.9-34.5-2.5C5.4,103.6,14.7,101,48.1,101.7z"
        />
        <path
            fill="#E76F00"
            d="M81.5,69.2c9.7,11.2-2.6,21.2-2.6,21.2
            s25.1-13.0,13.6-29.2c-10.8-15.3-19.2-23,26.1-49.7C118.6,11.5,74.7,35.9,81.5,69.2z"
        />
        <path
            fill="#5382A1"
            d="M55.2,92.2c-0.7,16.3-28.6,16.7-28.6,16.7
            c17.9,7.3,45.5-1.7,44.9-16.7C71.2,89.1,55.2,92.2,55.2,92.2z"
        />
        <path
            fill="#E76F00"
            d="M52.2,0c11.6,13.1-3,24.7-3,24.7
            C63.3,20.8,60.8,8.6,52.2,0z"
        />
        <path
            fill="#E76F00"
            d="M23.6,64.5c-14.6-3.3-15.3-11.6,3.2-20.7
            c-8.5-6-14.8-12.6-10.7-20.4c23.8,5.5,12.5,20.2,1.8,23.4c-17.5,5.1-1.2,10.5,5,11.7c6.3,1.1,15.7-0.1,22.7-4.6
            c6.7-4.3,9.6-9.7,9.6-9.7S37.2,68.3,23.6,64.5z"
        />
        <path
            fill="#E76F00"
            d="M73.1,111.2C37.7,124.6,1.4,109.3,19.5,103.7
            C23.7,102.2,30.2,102,30.2,102C18.6,97.8,9.4,99.7,9.4,99.7C3.1,98.0,0,95.5,0,95.5c19.7-2.7,21.5,5.9,47.2,5.6
            c12.7-0.1,19.7-2.2,19.7-2.2C55.3,104.5,73.1,111.2,73.1,111.2z M40.7,91.0c-6.6,1.3-15.4,1.2-20.1,0.3
            c-6.5-1.3-4.1-4.6-4.1-4.6c16.5-1.3,26.7,2.3,45.5-2.2c0,0-3.4 3.2-21.3,6.4zM67.6,82.3C62.8,86.0,55.3,87.3,47.5,87.7
            c-8.4,0.4-10.5-2.0-10.5-2.0c19.2-4.2,30.3-6.0,35.2-16.7C72.2,69.0,80.7,75.7,67.6,82.3z"
        />
    </g>
</svg>
